<?xml version="1.0" encoding="utf-8"?>
<!-- Generator: Adobe Illustrator 24.1.0, SVG Export Plug-In . SVG Version: 6.00 Build 0)  -->
<svg version="1.1" id="Layer_2" xmlns="http://www.w3.org/2000/svg" xmlns:xlink="http://www.w3.org/1999/xlink" x="0px" y="0px"
	 viewBox="0 0 300 70" style="enable-background:new 0 0 300 70;" xml:space="preserve">
<style type="text/css">
	.st0{fill:#FFFFFF;}
	.st1{fill:url(#SVGID_1_);}
	.st2{fill:url(#SVGID_2_);}
	.st3{fill:url(#SVGID_3_);}
	.st4{fill:url(#SVGID_4_);}
	.st5{fill:url(#SVGID_5_);}
	.st6{opacity:0.4;fill:url(#SVGID_6_);enable-background:new    ;}
</style>
<g>
	<path class="st0" d="M76.183,15.764c-0.507-0.981-1.483-1.632-2.584-1.724c-0.362-0.031-0.728-0.06-1.096-0.089
		c0.071-0.121,0.142-0.242,0.213-0.361c0.564-0.949,0.601-2.123,0.097-3.106s-1.478-1.638-2.579-1.734l-0.188-0.017
		c-0.032-0.003-0.064-0.007-0.096-0.01l-0.097-0.008l-0.035-0.003l-0.17-0.015c-0.04-0.003-0.079-0.006-0.119-0.008
		c-0.54-0.044-1.086-0.087-1.636-0.128c0.013-0.532-0.105-1.067-0.358-1.556c-0.514-0.995-1.51-1.65-2.627-1.729l-0.603-0.042
		c-0.02-0.001-0.04-0.003-0.06-0.003c-5.956-0.498-11.957-0.75-17.839-0.75c-1.334,0-3.346,0.029-4.659,0.056
		c-0.138-0.218-0.221-0.352-0.221-0.352c-0.329-0.53-0.653-0.997-0.876-1.266c-0.343-0.415-0.734-0.75-1.197-1.027
		c-0.498-0.297-1.067-0.454-1.646-0.454c-0.026,0-0.052,0-0.079,0.001c-0.236,0.006-0.472,0.013-0.708,0.019
		c-0.004,0-0.008,0-0.012,0l-0.544,0.017c-0.005,0-0.01,0-0.015,0.001c-2.349,0.074-4.703,0.195-6.998,0.358l-0.071,0.005
		l-0.155,0.011c-2.191,0.158-4.188,0.346-5.935,0.557c-0.726,0.088-1.399,0.421-1.91,0.943c-2.992,3.061-6.025,7.575-9.014,13.42
		c-0.01,0.018-0.019,0.035-0.028,0.054c-0.068,0.133-0.136,0.268-0.204,0.402c-1.112,2.203-2.203,4.565-3.245,7.028
		c-0.01,0.023-0.021,0.047-0.031,0.07l-0.18,0.428c-0.945,2.26-1.85,4.603-2.689,6.967c-0.013,0.034-0.026,0.069-0.039,0.104
		L5.861,32.09l-0.055,0.158c-0.01,0.027-0.019,0.055-0.028,0.082c-0.81,2.315-1.554,4.627-2.21,6.876
		c-0.01,0.032-0.02,0.065-0.03,0.097l-0.083,0.29l-0.038,0.133c-0.011,0.04-0.022,0.079-0.032,0.119
		c-0.817,2.857-1.492,5.587-2.007,8.117l-0.006,0.031l-0.017,0.082c-0.003,0.013-0.005,0.025-0.007,0.037L1.312,48.3l-0.058,0.305
		c-0.194,1.021,0.118,2.073,0.838,2.823c0.61,0.636,1.449,0.988,2.317,0.988c0.047,0,0.094-0.001,0.141-0.003
		c-0.091,0.417-0.178,0.829-0.261,1.237c-0.006,0.025-0.012,0.05-0.017,0.076l-0.125,0.582c-0.221,1.029,0.076,2.102,0.796,2.871
		c0.612,0.653,1.462,1.016,2.343,1.016c0.051,0,0.104-0.001,0.155-0.003c-0.092,0.425-0.181,0.845-0.266,1.261
		c-0.01,0.044-0.021,0.09-0.029,0.136l-0.026,0.136l-0.008,0.035l-0.023,0.113c-0.008,0.041-0.015,0.081-0.022,0.122l-0.034,0.176
		c-0.199,1.023,0.111,2.079,0.83,2.832c0.61,0.639,1.451,0.993,2.321,0.993c0.042,0,0.084-0.001,0.127-0.003
		c-0.074,0.35-0.146,0.696-0.213,1.035c-0.204,1.025,0.103,2.084,0.822,2.841c0.611,0.642,1.454,0.998,2.326,0.998
		c0.156,0,0.313-0.011,0.469-0.035c5.134-0.758,11.929-1.176,19.133-1.176c8.294,0,16.977,0.54,25.109,1.561
		c0.136,0.017,0.27,0.025,0.404,0.025c1.567,0,2.933-1.146,3.172-2.735c2.232-14.863,7.23-35.183,14.566-47.637
		C76.657,17.917,76.689,16.745,76.183,15.764z"/>
	<g>
		
			<linearGradient id="SVGID_1_" gradientUnits="userSpaceOnUse" x1="32.374" y1="45.9131" x2="60.5728" y2="5.7715" gradientTransform="matrix(1 0 0 -1 0 72)">
			<stop  offset="0" style="stop-color:#00ABCC"/>
			<stop  offset="1" style="stop-color:#00829B"/>
		</linearGradient>
		<path class="st1" d="M73.272,17.333c-14.627-1.23-28.342-0.926-38.255,0.275c-9.137,9.346-18.694,32.403-21.83,48.139
			c10.472-1.547,27.744-1.806,45.111,0.376C60.478,51.603,65.495,30.536,73.272,17.333z"/>
		
			<linearGradient id="SVGID_2_" gradientUnits="userSpaceOnUse" x1="28.8152" y1="51.4761" x2="56.2399" y2="12.4362" gradientTransform="matrix(1 0 0 -1 0 72)">
			<stop  offset="0" style="stop-color:#00B1DC"/>
			<stop  offset="1" style="stop-color:#00A89C"/>
		</linearGradient>
		<path class="st2" d="M69.622,12.016c-14.627-1.23-28.343-0.925-38.256,0.275c-9.137,9.346-18.052,32.563-21.188,48.3
			c10.472-1.549,26.113-2.021,42.883-0.451C55.894,43.689,61.363,25.906,69.622,12.016z"/>
		<path class="st0" d="M10.124,60.875l0.113-0.582c11.539-1.706,27.382-1.868,42.596-0.462c3.185-18.335,8.986-35.237,16.478-47.841
			l0.586,0.051c-7.493,12.603-13.402,29.784-16.565,48.149l-0.044,0.259l-0.253-0.024C37.787,58.996,21.687,59.166,10.124,60.875z"
			/>
		
			<linearGradient id="SVGID_3_" gradientUnits="userSpaceOnUse" x1="43.2914" y1="26.1788" x2="24.0661" y2="62.5194" gradientTransform="matrix(1 0 0 -1 0 72)">
			<stop  offset="0" style="stop-color:#29B473"/>
			<stop  offset="1" style="stop-color:#00974A"/>
		</linearGradient>
		<path class="st3" d="M48.521,33.084l1.503-4.087l7.121-8.144c0.302-0.068,0.607-0.095,0.868-0.041
			c1.838-4.217,4.081-8.588,6.31-12.255c-14.042-1.2-27.222-0.915-36.73,0.237c-8.702,8.9-17.315,31.011-20.302,45.998
			c4.528-0.668,10.095-1.126,16.319-1.287c-0.353-0.152-0.063-1.462-0.055-1.494c0.413-1.585,1.479-2.824,3.008-4.136
			c1.531-1.312,0.842-2.151,2.022-2.627c1.183-0.471,4.375-2.057,7.193-4.135c2.823-2.084,3.819-9.287,3.903-8.797
			c0.083,0.493,1.079,0.317,1.082,0.733c0,0.421,0.301,1.255,0.491,1.279c0.188,0.025,1.035-2.132,2.953-2.177
			c1.918-0.044,3.193,1.287,3.31,1.287c0.116,0,0.844-0.099,0.844-0.099L48.521,33.084z"/>
		<path class="st0" d="M57.882,21.68l-0.49-0.268l0.376-0.735c1.863-4.273,4.045-8.511,6.255-12.146l0.603,0.042
			c-2.196,3.614-4.501,8.089-6.361,12.355L57.882,21.68z"/>
		<g>
			<path class="st0" d="M39.624,7.54c-0.172,0.1,0.09,0.189,0.487,0.701c0.394,0.514,1.185,1.735,1.186,2.123
				c0.001,0.387-0.458,0.196,0.069,0.837c0.527,0.643,2.308,3.279,2.57,3.728c0.266,0.45,0.55,0.332,0.55,0.072
				c0-0.16,0.307,0.192,0.368,0.459c0.038,0.159-0.189,0.073-0.189,0.174c0,0.199,0.564,0.825,1.037,2.086
				c0.522,1.392,1.009,2.16,0.883,3.514c-0.126,1.355-0.382,3.292-1.426,3.811c-1.048,0.521-1.9,0.655-1.831,1.622
				c0.068,0.966,1.118,1.027,1.843,1.603c0.724,0.578,1.835,0.314,2.232,1.28c0.399,0.965-0.122,2.707-0.773,3.484
				c-0.653,0.778-0.914,1.1-0.586,1.357c0.332,0.257,0.591,0.318,0.856,0.19c0.261-0.129,0.524,0.125,0.525,0.512
				c0.001,0.386,0.199,0.453,1.31-0.199c1.111-0.653,1.565-2.073,2.479-3.172c0.915-1.098,1.749-2.792,2.014-3.246
				c0.123-0.216,0.085-0.278-0.256-0.449c-0.438-0.225-0.544-0.633-0.356-1.011c0.434-0.875,1.163-1.038,1.968-1.218
				c0.307-0.069,0.934-0.079,1.077,0.033c0.319,0.254,0.1,0.842,0.242,0.721c0.231-0.197,0.396-0.556,0.439-0.675
				c0.038-0.103-0.014-0.12-0.068-0.154c-0.134-0.082-0.332-0.305-0.101-0.858c0.324-0.774,1.176-0.522,1.435-1.878
				c0.254-1.354,1.04-2.132,0.644-2.645c-0.395-0.514-1.248-0.316-1.901-0.056c-0.656,0.261-1.437,1.553-2.291,1.238
				c-0.855-0.32-3.02-0.955-3.35-1.468c-0.33-0.515-0.794-2.574-0.93-3.349c-0.136-0.771-0.722-0.509-0.986-0.899
				c-0.264-0.384-0.459,0.261-0.391,0.971c0.07,0.71,0.794,1.413,0.334,1.673c-0.458,0.261-0.79-1.027-1.446-1.281
				c-0.656-0.257-0.92-0.641-0.795-1.933c0.126-1.289-1.12-1.475-0.926-2.187c0.196-0.71,0.387-1.417-1.125-2.443
				c-1.508-1.024-2.101-0.828-2.627-1.341c-0.525-0.513-0.986-0.77-1.054-1.285c-0.068-0.514,0.39-0.663-0.395-0.512
				C39.936,7.552,39.796,7.439,39.624,7.54z"/>
			<path class="st0" d="M44.056,36.883c0.355-0.521,0.598-0.854,0.651-1.083c0.051-0.234-0.656-0.153-0.659-0.746
				c-0.001-0.591,0.416-1.109,0.416-1.419c0-0.166-0.197-0.116-0.327-0.105c-0.13,0.012-0.266-0.057-0.304-0.175
				c-0.079-0.257-0.392-0.336-0.997-0.099c-0.6,0.236-1.173,0.959-1.356,0.933c-0.184-0.024-0.477-0.897-0.477-1.337
				c-0.002-0.436-1.096-0.246-1.052-0.767c0.029-0.331,0.111-0.429,0.178-0.533c0.033-0.051,0.102-0.122,0-0.151
				c-0.839-0.127-1.462,0.769-1.852,1.157c-0.393,0.387,0.582,1.875-0.435,2.679c-1.017,0.802-1.439,0.601-1.512,1.011
				c-0.077,0.414-0.228,2.809-2.972,4.989c-2.741,2.174-4.284,3.522-5.433,4.014c-1.148,0.498-1.353,2.043-2.841,3.416
				c-1.487,1.371-2.317,4.213-1.553,5.004c0.764,0.797,1.656,0.544,2.126,0.432c0.369-0.088,0.941,0.096,1.1,0.35
				c0.158,0.26,0.942-0.053,1.338,0.253c0.392,0.309,1.18,0.588,2.149,0.48c0.97-0.111,2.695-0.862,4.156-3.165
				c1.456-2.298,1.263-4.359,1.549-5.183c0.285-0.825,1.248-2.115,2.48-2.459c1.227-0.341,1.357-0.496,1.83-0.267
				c0.474,0.231,1.287,0.331,1.203-0.442c-0.08-0.773-1.155-0.51-1.157-1.129c-0.001-0.614-0.188-1.055,0.573-1.393
				c0.757-0.339,1.25-1.37,1.695-2.274C43.012,37.969,43.509,37.685,44.056,36.883z"/>
		</g>
		
			<linearGradient id="SVGID_4_" gradientUnits="userSpaceOnUse" x1="8.1707" y1="68.2749" x2="32.6261" y2="26.2714" gradientTransform="matrix(1 0 0 -1 0 72)">
			<stop  offset="0" style="stop-color:#E0E44A"/>
			<stop  offset="1" style="stop-color:#50B748"/>
		</linearGradient>
		<path class="st4" d="M47.402,29.547c-0.07-0.17-0.163-0.3-0.271-0.405c-0.09-0.079-0.19-0.149-0.297-0.213
			c-0.503-0.264-1.172-0.27-1.663-0.661c-0.726-0.576-1.774-0.637-1.843-1.603c-0.07-0.966,0.782-1.101,1.831-1.622
			c1.045-0.519,1.3-2.456,1.426-3.811c0.126-1.354-0.36-2.122-0.883-3.514c-0.473-1.26-1.037-1.887-1.037-2.086
			c0-0.101,0.227-0.015,0.189-0.174c-0.061-0.267-0.368-0.619-0.368-0.459c0,0.259-0.284,0.377-0.55-0.072
			c-0.262-0.449-2.043-3.084-2.57-3.728c-0.528-0.641-0.068-0.45-0.069-0.837c-0.001-0.388-0.793-1.608-1.186-2.123
			c-0.196-0.253-0.359-0.402-0.452-0.501l0,0c-0.083,0.003-0.06,0.001-0.001-0.001c-0.081-0.086-0.106-0.133-0.059-0.177
			c-0.259-0.667-1.133-2.085-1.481-2.506c-0.13-0.158-0.258-0.249-0.366-0.314c-4.972,0.121-10.239,0.475-14.13,0.946
			C15.389,14.106,7.362,34.435,4.465,48.694c4.213-0.612,13.2-1.269,19.336-1.414c0.059-0.001,0.407-0.017,0.762-0.034
			c0.383-0.018,0.776-0.036,0.838-0.038c0.001,0,0.377-0.017,0.898-0.04c0.543-0.854,0.892-1.599,1.626-1.917
			c1.15-0.492,2.693-1.841,5.433-4.014c2.744-2.18,2.895-4.575,2.972-4.989c0.074-0.411,0.496-0.209,1.512-1.011
			c1.016-0.804,0.042-2.292,0.435-2.679c0.39-0.387,1.013-1.284,1.852-1.157c0.102,0.03,0.033,0.1,0,0.151
			c-0.067,0.105-0.149,0.202-0.178,0.533c-0.045,0.521,1.05,0.332,1.052,0.767c0,0.44,0.293,1.314,0.477,1.337
			c0.183,0.026,0.756-0.698,1.356-0.933c0.082-0.032,0.158-0.057,0.229-0.078c0.001,0,0.001-0.001,0.002-0.001
			c0.094-0.034,0.204-0.052,0.32-0.06c0.005,0,0.01-0.001,0.014-0.001c0.671-0.04,1.611,0.29,1.806,0.402
			c0.18,0.104,0.391,0.319,0.696,0.655c-0.031-0.235,0.237-0.561,0.724-1.142C47.28,32.255,47.801,30.513,47.402,29.547z"/>
		<path class="st0" d="M23.303,53.219c-5.757,0.142-12.387,0.749-15.952,1.275l-0.125,0.582c3.623-0.534,10.57-1.166,16.421-1.293
			c-0.039-0.035-0.077-0.07-0.115-0.11C23.422,53.561,23.349,53.404,23.303,53.219z"/>
		<path class="st0" d="M26.299,47.17c-0.521,0.023-0.897,0.04-0.898,0.04c-0.062,0.001-0.455,0.02-0.838,0.038
			c-0.356,0.017-0.704,0.033-0.762,0.034c-6.135,0.145-15.122,0.803-19.336,1.414c-0.008,0.037-0.015,0.074-0.023,0.111
			l-0.035,0.187l-0.058,0.305c4.152-0.612,13.297-1.298,19.464-1.444c0.06-0.001,0.413-0.018,0.776-0.035
			c0.12-0.006,0.643-0.029,1.305-0.059c0.094-0.126,0.183-0.251,0.265-0.375h0.001c0.074-0.077,0.142-0.15,0.203-0.22
			C26.341,47.168,26.32,47.169,26.299,47.17z"/>
		<path class="st0" d="M26.95,55.427c-0.552-0.147-0.309,0.324-0.275,0.71c0.033,0.384-0.197,0.348-0.288,0.684
			c-0.09,0.335-0.236,0.697-0.134,0.877c0.101,0.183,0.222,0.163,0.475-0.137c0.252-0.304,0.277-0.274,0.708-0.304
			c0.431-0.025,0.601-0.124,0.566-0.638C27.966,56.111,27.439,55.553,26.95,55.427z"/>
		
			<linearGradient id="SVGID_5_" gradientUnits="userSpaceOnUse" x1="16.6017" y1="59.9053" x2="33.2016" y2="29.3322" gradientTransform="matrix(1 0 0 -1 0 72)">
			<stop  offset="0" style="stop-color:#FFF698;stop-opacity:0.9"/>
			<stop  offset="1" style="stop-color:#FFF7A2;stop-opacity:0.1"/>
		</linearGradient>
		<path class="st5" d="M10.061,48.082c0.14-0.013,0.281-0.024,0.423-0.037c0.669-2.734,1.375-5.331,2.11-7.785
			c1.929-0.12,4.208-0.246,6.695-0.352c-0.721,2.415-1.413,4.969-2.069,7.654c0.14-0.008,0.28-0.016,0.42-0.024
			c0.658-2.684,1.352-5.235,2.074-7.648c2.119-0.087,4.38-0.158,6.698-0.198c-0.711,2.388-1.394,4.912-2.041,7.563
			c0.063-0.003,0.128-0.006,0.193-0.009c0.076-0.003,0.152-0.007,0.225-0.01c0.648-2.647,1.332-5.167,2.044-7.55
			c2.209-0.035,4.465-0.04,6.695-0.005c-0.181,0.607-0.359,1.225-0.537,1.849c0.12-0.096,0.24-0.192,0.366-0.291
			c0.064-0.051,0.12-0.102,0.181-0.154c0.135-0.468,0.27-0.938,0.407-1.396c0.312,0.006,0.622,0.015,0.933,0.022
			c0.103-0.133,0.198-0.264,0.286-0.394c-0.366-0.01-0.731-0.019-1.1-0.027c0.735-2.438,1.496-4.738,2.271-6.903
			c0.689,0.013,1.373,0.032,2.053,0.054c0.106-0.115,0.227-0.252,0.361-0.389c-0.752-0.026-1.508-0.048-2.271-0.063
			c0.896-2.477,1.809-4.776,2.72-6.901c1.838,0.038,3.65,0.107,5.401,0.211c0.177-0.078,0.361-0.159,0.555-0.256
			c0.057-0.028,0.111-0.063,0.163-0.099c-1.918-0.126-3.916-0.209-5.948-0.252c1.107-2.556,2.21-4.856,3.273-6.908
			c1.05,0.021,2.091,0.053,3.118,0.094c-0.021-0.054-0.041-0.102-0.062-0.158c-0.033-0.088-0.067-0.166-0.101-0.249
			c-0.908-0.035-1.823-0.065-2.748-0.084c0.418-0.797,0.827-1.551,1.23-2.271c-0.048-0.047-0.097-0.104-0.146-0.187
			c-0.024-0.04-0.063-0.104-0.11-0.177c-0.464,0.826-0.938,1.699-1.421,2.627c-2.214-0.04-4.456-0.04-6.657-0.008
			c1.442-2.752,2.805-5.045,4.003-6.899c0.508-0.008,1.023-0.008,1.535-0.012c0.007-0.028,0.012-0.058,0.012-0.095
			c0-0.074-0.035-0.183-0.084-0.306c-0.4,0.003-0.803,0.002-1.2,0.008c0.229-0.351,0.45-0.679,0.666-0.997
			c-0.079-0.126-0.159-0.248-0.238-0.364c-0.291,0.426-0.594,0.881-0.911,1.367c-2.271,0.035-4.493,0.101-6.586,0.183
			c2.157-3.28,3.712-5.065,4.101-5.495c-0.183,0.006-0.366,0.011-0.55,0.017c-0.643,0.744-2.117,2.544-4.043,5.498
			c-2.429,0.099-4.672,0.218-6.604,0.336c2.285-3.467,3.886-5.246,4.126-5.506c-0.191,0.013-0.383,0.026-0.573,0.04
			c-0.617,0.709-2.098,2.506-4.052,5.497c-2.976,0.185-5.133,0.358-5.977,0.428c-0.095,0.142-0.19,0.282-0.285,0.427
			c0.413-0.036,2.659-0.227,5.991-0.436c-1.197,1.859-2.555,4.148-3.99,6.889c-2.987,0.186-5.139,0.36-5.947,0.427
			c-0.072,0.14-0.142,0.28-0.213,0.421c0.485-0.042,2.697-0.229,5.943-0.433c-1.06,2.047-2.158,4.339-3.261,6.884
			c-2.837,0.176-4.933,0.342-5.85,0.418c-0.058,0.139-0.117,0.278-0.175,0.418c0.753-0.064,2.878-0.236,5.848-0.423
			c-0.913,2.128-1.827,4.429-2.724,6.908c-2.954,0.186-5.059,0.357-5.788,0.419c-0.049,0.138-0.097,0.277-0.145,0.415
			c0.466-0.04,2.615-0.222,5.784-0.423c-0.775,2.164-1.535,4.462-2.27,6.896c-2.946,0.186-5.03,0.357-5.729,0.416
			c-0.04,0.138-0.079,0.275-0.119,0.413c0.471-0.041,2.595-0.22,5.724-0.419C11.432,42.746,10.728,45.346,10.061,48.082z
			 M26.533,39.29c-2.316,0.039-4.576,0.109-6.696,0.195c0.737-2.437,1.5-4.735,2.277-6.899c2.115-0.086,4.371-0.157,6.683-0.197
			C28.024,34.554,27.266,36.855,26.533,39.29z M31.654,25.082c-0.909,2.127-1.819,4.428-2.712,6.904
			c-2.31,0.038-4.564,0.108-6.682,0.193c0.9-2.481,1.817-4.781,2.732-6.907C27.106,25.188,29.353,25.119,31.654,25.082z
			 M25.169,24.864c1.109-2.552,2.213-4.847,3.276-6.891c2.105-0.085,4.344-0.154,6.638-0.192c-1.059,2.053-2.155,4.35-3.255,6.898
			C29.53,24.714,27.284,24.78,25.169,24.864z M33.649,39.283c-2.229-0.038-4.485-0.033-6.695,0.001
			c0.735-2.437,1.496-4.737,2.271-6.901c2.208-0.034,4.461-0.04,6.689-0.003C35.141,34.545,34.382,36.847,33.649,39.283z
			 M36.058,31.981c-2.226-0.038-4.478-0.035-6.686-0.001c0.897-2.479,1.811-4.779,2.723-6.904c2.206-0.032,4.455-0.034,6.675,0.006
			C37.859,27.207,36.95,29.506,36.058,31.981z M42.199,17.776c-1.06,2.056-2.157,4.355-3.259,6.907
			c-2.219-0.042-4.466-0.041-6.673-0.011c1.107-2.552,2.208-4.849,3.27-6.898C37.738,17.741,39.981,17.737,42.199,17.776z
			 M32.675,10.668c2.091-0.084,4.316-0.152,6.594-0.19c-1.196,1.868-2.55,4.161-3.977,6.898c-2.289,0.036-4.526,0.104-6.632,0.186
			C30.109,14.806,31.477,12.515,32.675,10.668z M25.575,11.029c1.921-0.118,4.169-0.24,6.611-0.342
			c-1.197,1.862-2.554,4.153-3.987,6.893c-2.448,0.1-4.705,0.221-6.643,0.339C23.007,15.164,24.377,12.874,25.575,11.029z
			 M21.338,18.335c1.929-0.119,4.19-0.242,6.648-0.344c-1.06,2.05-2.158,4.343-3.261,6.89c-2.455,0.1-4.719,0.221-6.666,0.339
			C19.17,22.671,20.274,20.379,21.338,18.335z M17.881,25.633c1.938-0.119,4.204-0.242,6.668-0.343
			c-0.912,2.128-1.825,4.428-2.72,6.907c-2.473,0.103-4.746,0.227-6.683,0.346C16.047,30.06,16.965,27.759,17.881,25.633z
			 M14.997,32.954c1.93-0.12,4.204-0.245,6.684-0.35c-0.774,2.164-1.535,4.464-2.269,6.898c-2.481,0.104-4.758,0.228-6.695,0.348
			C13.456,37.415,14.219,35.117,14.997,32.954z"/>
		
			<linearGradient id="SVGID_6_" gradientUnits="userSpaceOnUse" x1="42.1159" y1="42.5563" x2="44.638" y2="37.9111" gradientTransform="matrix(1 0 0 -1 0 72)">
			<stop  offset="0" style="stop-color:#FFF698;stop-opacity:0.9"/>
			<stop  offset="1" style="stop-color:#FFF7A2;stop-opacity:0.1"/>
		</linearGradient>
		<path class="st6" d="M43.554,32.303c0.514-1.421,1.034-2.775,1.555-4.079c-0.11-0.081-0.226-0.153-0.344-0.218
			c-0.546,1.362-1.089,2.779-1.626,4.267c-1.038-0.072-2.105-0.131-3.187-0.177c-0.017,0.281,0.305,0.352,0.598,0.43
			c0.828,0.039,1.647,0.083,2.448,0.138c-0.073,0.203-0.145,0.414-0.217,0.619c0.019-0.008,0.037-0.019,0.055-0.027
			c0.162-0.063,0.302-0.102,0.423-0.123c0.051-0.145,0.103-0.295,0.154-0.439c1.118,0.081,2.2,0.182,3.242,0.299
			c0.088-0.109,0.172-0.236,0.252-0.375C45.831,32.495,44.713,32.389,43.554,32.303z"/>
	</g>
</g>
<g>
	<path class="st0" d="M104.581,49.702V30.757h-3.63v9.638c0,0.993,0.106,1.902,0.106,1.902h-0.054c0,0-0.37-0.856-0.927-1.819
		l-5.59-9.721H90.7v18.944h3.602V39.156c0-1.046-0.106-2.065-0.106-2.065h0.051c0,0,0.399,0.99,0.956,1.982l6.066,10.629
		C101.269,49.702,104.581,49.702,104.581,49.702z"/>
	<path class="st0" d="M116,40.891l-4.981,0.826c-0.131-3.085,0.955-4.598,2.624-4.598C115.179,37.119,116,38.275,116,40.891
		 M119.868,41.909c0-4.46-1.96-7.323-6.065-7.323c-4.107,0-6.438,3.001-6.438,7.654c0,4.737,2.515,7.737,6.888,7.737
		c2.409,0,3.999-0.468,5.139-1.075l-0.956-2.67c-0.767,0.415-2.038,0.799-3.707,0.799c-2.093,0-3.153-1.074-3.443-3.249l8.556-1.267
		C119.841,42.322,119.868,42.103,119.868,41.909"/>
	<path class="st0" d="M141.353,34.861h-3.628l-1.829,8.535c-0.237,1.075-0.264,2.177-0.264,2.177h-0.054
		c0,0-0.106-1.102-0.344-2.148l-2.041-8.564h-3.393l-2.171,8.564c-0.32,1.239-0.344,2.148-0.344,2.148h-0.054
		c0,0-0.027-0.937-0.266-2.148l-1.721-8.564h-4.107l3.922,14.842h3.787l2.091-8.04c0.266-0.991,0.319-2.039,0.319-2.039h0.027
		c0,0,0.054,1.047,0.291,2.039l2.04,8.04h3.817L141.353,34.861z"/>
	<polygon class="st0" points="160.564,49.702 160.564,46.701 154.974,46.701 160.457,30.757 150.046,30.757 150.046,33.759 
		155.131,33.759 149.437,49.702 	"/>
	<path class="st0" d="M170.574,40.891l-4.981,0.826c-0.131-3.085,0.955-4.598,2.624-4.598
		C169.753,37.119,170.574,38.275,170.574,40.891 M174.442,41.909c0-4.46-1.961-7.323-6.065-7.323c-4.107,0-6.438,3.001-6.438,7.654
		c0,4.737,2.515,7.737,6.888,7.737c2.409,0,3.998-0.468,5.138-1.075l-0.953-2.67c-0.769,0.415-2.041,0.799-3.709,0.799
		c-2.091,0-3.153-1.074-3.443-3.249l8.555-1.267C174.415,42.322,174.442,42.103,174.442,41.909"/>
	<path class="st0" d="M183.979,47.307c-0.371,0.193-0.901,0.302-1.51,0.302c-1.642,0-2.595-0.743-2.595-2.479
		c0-2.367,1.614-2.974,4.105-3.222V47.307z M187.848,48.877V40.01c0-4.02-2.385-5.425-5.617-5.425c-2.517,0-4.371,0.689-5.378,1.129
		l0.901,2.449c0.928-0.439,2.331-0.908,3.709-0.908c1.51,0,2.516,0.44,2.516,1.983v0.688c-4.29,0.413-7.974,1.542-7.974,5.37
		c0,3.083,2.121,4.681,6.254,4.681C184.722,49.978,186.656,49.537,187.848,48.877"/>
	<path class="st0" d="M205.705,47.307c-0.37,0.193-0.901,0.302-1.51,0.302c-1.643,0-2.597-0.743-2.597-2.479
		c0-2.367,1.615-2.974,4.107-3.222V47.307z M209.573,48.877V40.01c0-4.02-2.384-5.425-5.619-5.425c-2.515,0-4.371,0.689-5.376,1.129
		l0.9,2.449c0.928-0.439,2.331-0.908,3.71-0.908c1.508,0,2.516,0.44,2.516,1.983v0.688c-4.292,0.413-7.974,1.542-7.974,5.37
		c0,3.083,2.121,4.681,6.253,4.681C206.447,49.978,208.38,49.537,209.573,48.877"/>
	<path class="st0" d="M224.835,49.702V39.294c0-2.699-1.615-4.708-6.146-4.708c-2.543,0-4.558,0.441-5.987,1.1v14.016h4.133V37.559
		c0.476-0.165,0.927-0.302,1.748-0.302c1.669,0,2.12,1.018,2.12,2.064v10.38L224.835,49.702L224.835,49.702z"/>
	<path class="st0" d="M109.353,20.666c-0.371,0.191-0.901,0.302-1.512,0.302c-1.641,0-2.595-0.743-2.595-2.478
		c0-2.368,1.616-2.975,4.107-3.222L109.353,20.666L109.353,20.666z M113.222,22.23v-8.862c0-4.02-2.385-5.424-5.619-5.424
		c-2.515,0-4.371,0.687-5.377,1.129l0.901,2.45c0.926-0.441,2.329-0.909,3.708-0.909c1.51,0,2.517,0.441,2.517,1.982v0.69
		c-4.291,0.411-7.974,1.542-7.974,5.367c0,3.083,2.12,4.669,6.253,4.669C110.095,23.323,112.029,22.886,113.222,22.23"/>
	<path class="st0" d="M128.484,23.049V12.652c0-2.698-1.615-4.708-6.147-4.708c-2.544,0-4.557,0.441-5.987,1.101v14.004h4.131
		V10.918c0.477-0.165,0.93-0.303,1.749-0.303c1.669,0,2.12,1.02,2.12,2.065v10.37H128.484z"/>
	<path class="st0" d="M173.785,23.049V12.652c0-2.698-1.616-4.708-6.145-4.708c-2.544,0-4.557,0.441-5.987,1.101v14.004h4.131
		V10.918c0.478-0.165,0.928-0.303,1.749-0.303c1.669,0,2.12,1.02,2.12,2.065v10.37H173.785z"/>
	<path class="st0" d="M183.931,11V8.219h-2.201V6.346c0-1.707,0.821-2.202,2.201-2.148V1.472c-3.87-0.441-6.332,1.515-6.332,5.232
		v1.515h-1.565V11h1.565v12.049h4.131V11H183.931z"/>
	<path class="st0" d="M193.84,15.572c0,2.672-0.37,4.847-2.198,4.847c-1.802,0-2.199-2.176-2.199-4.847
		c0-2.643,0.371-4.957,2.199-4.957C193.47,10.614,193.84,12.928,193.84,15.572 M197.946,15.627c0-4.433-2.172-7.682-6.332-7.682
		c-4.107,0-6.278,3.249-6.278,7.682c0,4.434,2.171,7.697,6.306,7.697C195.774,23.324,197.946,20.062,197.946,15.627"/>
	<path class="st0" d="M208.223,8c-3.842-0.193-6.068,0.247-7.656,1.045v14.004h4.132V10.945c0.688-0.33,1.749-0.358,2.755,0.083
		L208.223,8z"/>
	<path class="st0" d="M230.235,23.049V12.652c0-2.616-1.749-4.708-5.141-4.708c-2.359,0-3.815,0.687-4.716,1.487
		c-0.819-0.826-2.171-1.487-4.529-1.487c-2.49,0-4.186,0.358-5.775,1.101v14.004h4.132V10.918c0.504-0.193,0.929-0.276,1.668-0.276
		c1.43,0,2.226,0.77,2.226,1.955v10.452h4.134V11.357c0.477-0.496,1.087-0.717,1.802-0.717c1.428,0,2.066,0.881,2.066,2.01v10.397
		h4.133V23.049z"/>
	<path class="st0" d="M240.674,20.666c-0.37,0.191-0.901,0.302-1.51,0.302c-1.643,0-2.597-0.743-2.597-2.478
		c0-2.368,1.616-2.975,4.107-3.222L240.674,20.666L240.674,20.666z M244.542,22.23v-8.862c0-4.02-2.384-5.424-5.616-5.424
		c-2.518,0-4.372,0.687-5.378,1.129l0.9,2.45c0.929-0.441,2.333-0.909,3.709-0.909c1.51,0,2.518,0.441,2.518,1.982v0.69
		c-4.292,0.411-7.974,1.542-7.974,5.367c0,3.083,2.119,4.669,6.251,4.669C241.415,23.323,243.349,22.886,244.542,22.23"/>
	<path class="st0" d="M254.638,22.858v-2.633c-0.345,0.111-0.53,0.164-0.876,0.164c-0.926,0-1.324-0.604-1.324-1.733v-7.655h2.2
		V8.219h-2.2V3.95c0,0-0.609-0.108-2.086,0.287c-1.478,0.397-2.048,0.814-2.048,0.814v3.168h-1.562v2.782h1.562v7.986
		c0,2.286,1.299,4.281,4.293,4.281C253.553,23.267,254.293,23.022,254.638,22.858"/>
	<path class="st0" d="M261.445,3.951c0-1.101-0.98-2.01-2.198-2.01c-1.218,0-2.197,0.909-2.197,2.01
		c0,1.129,0.979,2.011,2.197,2.011C260.465,5.962,261.445,5.08,261.445,3.951 M261.313,8.219h-4.133v14.83h4.133V8.219z"/>
	<path class="st0" d="M272.518,15.572c0,2.672-0.373,4.847-2.201,4.847c-1.799,0-2.197-2.176-2.197-4.847
		c0-2.643,0.371-4.957,2.197-4.957C272.145,10.614,272.518,12.928,272.518,15.572 M276.626,15.627c0-4.433-2.174-7.682-6.332-7.682
		c-4.106,0-6.279,3.249-6.279,7.682c0,4.434,2.173,7.697,6.303,7.697C274.451,23.324,276.626,20.062,276.626,15.627"/>
	<path class="st0" d="M291.054,23.082V12.684c0-2.697-1.616-4.709-6.145-4.709c-2.544,0-4.558,0.441-5.987,1.103v14.003h4.131
		V10.949c0.476-0.165,0.927-0.302,1.749-0.302c1.67,0,2.12,1.018,2.12,2.065v10.37L291.054,23.082L291.054,23.082z"/>
	<path class="st0" d="M196.253,59.606c-1.354,0-2.461,0.397-3.067,0.678l0.237,1.159c0.572-0.265,1.42-0.546,2.248-0.546
		c1.004,0,1.648,0.314,1.44,1.474l-0.088,0.48c-1.258,0.126-2.471,0.366-3.409,0.81l-0.041,0.019
		c-1.002,0.493-1.716,1.258-1.933,2.464c-0.308,1.722,0.677,2.716,3.017,2.716c1.341,0,2.47-0.265,3.222-0.645l0.816-4.555l0,0
		l0.175-0.975C199.283,60.385,198.019,59.606,196.253,59.606z M196.194,67.487c-0.313,0.148-0.76,0.248-1.207,0.248
		c-1.131,0-1.712-0.496-1.505-1.654c0.292-1.623,1.498-2.037,3.37-2.269L196.194,67.487z"/>
	<path class="st0" d="M190.431,63.661l0.696-3.89h-1.943l-0.698,3.89l-0.629,3.527c-0.372,0.199-0.787,0.298-1.346,0.298
		c-1.002,0-1.33-0.661-1.18-1.506l0.417-2.319l0.696-3.89h-1.942l-0.697,3.89l-0.394,2.202c-0.353,1.97,0.495,3.014,2.79,3.014
		c1.497,0,2.636-0.313,3.424-0.712L190.431,63.661z"/>
	<path class="st0" d="M181.972,62.339c0.259-1.441-0.356-2.732-2.917-2.732c-1.45,0-2.593,0.248-3.477,0.646l-0.611,3.409
		l-0.901,5.033h1.943l0.903-5.033l0.452-2.532c0.393-0.148,0.744-0.248,1.382-0.248c1.225,0,1.409,0.762,1.279,1.49l-0.231,1.29
		l-0.902,5.033h1.945l0.9-5.033L181.972,62.339z"/>
	<path class="st0" d="M171.451,63.381l-1.813,0.28l-1.839,0.283c0.014-0.097,0.048-0.283,0.048-0.283
		c0.372-1.937,1.273-2.813,2.353-2.813C171.285,60.848,171.773,61.593,171.451,63.381 M170.503,59.606
		c-2.1,0-3.741,1.478-4.371,4.054c-0.044,0.179-0.082,0.361-0.116,0.548c-0.541,3.014,0.712,4.652,3.147,4.652
		c1.305,0,2.285-0.297,2.948-0.63l-0.234-1.273c-0.505,0.247-1.267,0.496-2.255,0.496c-1.402,0-2.033-0.827-1.893-2.5l5.394-0.778
		l0.048-0.263c0.015-0.085,0.029-0.17,0.041-0.251C173.608,61.067,172.696,59.606,170.503,59.606"/>
	<path class="st0" d="M155.101,63.661l1.738-3.89h-1.721l-1.588,3.89l-0.767,1.872c-0.23,0.579-0.388,1.193-0.388,1.193
		c-0.032,0,0.013-0.614-0.028-1.177l-0.135-1.888l-0.279-3.89h-1.624l-1.716,3.89l-0.833,1.888
		c-0.297,0.678-0.432,1.177-0.432,1.177c-0.033,0,0.04-0.498,0.019-1.177l-0.073-1.888l-0.151-3.89h-1.958l0.344,3.89l0.448,5.033
		h1.75l2.263-5.033l0.253-0.562c0.262-0.578,0.395-1.142,0.395-1.142c0.032,0-0.054,0.564,0.003,1.142l0.046,0.562l0.433,5.033
		h1.751L155.101,63.661z"/>
	<path class="st0" d="M137.21,63.381l-1.813,0.28l-1.84,0.283c0.016-0.097,0.049-0.283,0.049-0.283
		c0.37-1.937,1.274-2.813,2.353-2.813C137.043,60.848,137.531,61.593,137.21,63.381 M136.261,59.606
		c-2.101,0-3.742,1.478-4.372,4.054c-0.042,0.179-0.082,0.361-0.115,0.548c-0.539,3.014,0.712,4.652,3.15,4.652
		c1.305,0,2.283-0.297,2.948-0.63l-0.234-1.273c-0.507,0.247-1.269,0.496-2.254,0.496c-1.402,0-2.036-0.827-1.895-2.5l5.396-0.778
		l0.047-0.263c0.017-0.085,0.031-0.17,0.043-0.251C139.368,61.067,138.454,59.606,136.261,59.606"/>
	<path class="st0" d="M120.486,63.661l0.697-3.89h-1.943l-0.696,3.89l-0.631,3.527c-0.369,0.199-0.785,0.298-1.343,0.298
		c-1.004,0-1.332-0.661-1.18-1.506l0.415-2.319l0.696-3.89h-1.943l-0.695,3.89l-0.396,2.202c-0.353,1.97,0.497,3.014,2.791,3.014
		c1.495,0,2.636-0.313,3.424-0.712L120.486,63.661z"/>
	<path class="st0" d="M107.513,57.239c0.1-0.562-0.282-1.01-0.887-1.01c-0.589,0-1.148,0.447-1.248,1.01
		c-0.098,0.547,0.302,0.993,0.89,0.993C106.872,58.232,107.414,57.787,107.513,57.239"/>
	<path class="st0" d="M89.709,68.878"/>
	<polygon class="st0" points="106.963,59.772 105.021,59.772 104.323,63.661 103.423,68.695 105.365,68.695 106.268,63.661 	"/>
	<path class="st0" d="M99.663,59.606c-2.114,0-3.536,1.524-4.177,3.7l-0.088,0.352c-0.053,0.218-0.111,0.464-0.131,0.583
		c-0.472,2.631,0.335,4.619,2.739,4.619c2.406,0,3.924-1.987,4.396-4.619c0.034-0.197,0.063-0.392,0.085-0.581
		C102.752,61.295,101.906,59.606,99.663,59.606z M100.568,63.661c-0.026,0.186-0.057,0.375-0.091,0.564
		c-0.301,1.687-0.839,3.261-2.224,3.261c-1.337,0-1.359-1.574-1.058-3.261c0.024-0.127,0.071-0.361,0.111-0.559
		c0.329-1.485,0.913-2.785,2.13-2.785C100.667,60.881,100.774,62.175,100.568,63.661z"/>
	<polygon class="st0" points="89.963,57.306 89.71,58.712 91.75,58.712 90.862,63.661 89.962,68.695 91.984,68.695 92.885,63.661 
		93.773,58.712 95.826,58.712 96.078,57.306 	"/>
	<polygon class="st0" points="115.498,58.595 115.672,57.59 120.559,57.59 120.388,58.595 	"/>
	<path class="st0" d="M158.315,23.048V1.463c0,0-0.632-0.109-2.166,0.288c-1.535,0.396-2.126,0.813-2.126,0.813l0.002,20.485
		L158.315,23.048L158.315,23.048z"/>
	<path class="st0" d="M99.68,23.048v-2.987h-4.635V3.017c0,0-0.633-0.108-2.167,0.287c-1.51,0.391-2.104,0.799-2.122,0.811h-0.003
		v0.002v18.929h8.928V23.048z"/>
	<path class="st0" d="M130.46,57.24l-0.015,0.003c-0.042-0.013-0.319-0.091-0.965-0.046c-0.705,0.051-0.996,0.318-0.996,0.318
		l-0.423,2.255h-0.955l-0.233,1.292h0.956l-0.465,2.598l-0.487,2.716c-0.223,1.242,0.236,2.417,1.925,2.417
		c0.462,0,0.829-0.1,1.018-0.181l0.227-1.259c-0.169,0.049-0.302,0.083-0.477,0.083c-0.669,0-0.857-0.465-0.733-1.159l0.468-2.617
		l0.466-2.598h1.401l0.231-1.292h-1.401L130.46,57.24z"/>
	<path class="st0" d="M111.998,57.24l-0.015,0.003c-0.042-0.013-0.32-0.091-0.966-0.046c-0.704,0.051-0.996,0.318-0.996,0.318
		l-0.422,2.255h-0.955l-0.232,1.292h0.956l-0.465,2.598l-0.487,2.716c-0.223,1.242,0.236,2.417,1.925,2.417
		c0.462,0,0.829-0.1,1.018-0.181l0.227-1.259c-0.168,0.049-0.302,0.083-0.478,0.083c-0.669,0-0.857-0.465-0.732-1.159l0.468-2.617
		l0.466-2.598h1.401l0.23-1.292h-1.401L111.998,57.24z"/>
	<path class="st0" d="M162.164,59.673c-0.653,0-1.285,0.15-1.998,0.481l0.799-4.455l-0.006,0.001l0.002-0.008
		c0,0-0.27-0.099-0.974-0.048c-0.705,0.05-0.995,0.185-0.995,0.185l-1.394,7.833l-0.904,5.034h1.946l0.9-5.034l0.428-2.382
		c0.476-0.266,0.908-0.366,1.433-0.366c1.161,0,1.385,0.712,1.246,1.508l-0.224,1.241l-0.901,5.034h1.942l0.904-5.034l0.231-1.29
		C164.843,60.997,164.33,59.673,162.164,59.673"/>
	<path class="st0" d="M139.506,20.39c-0.292,0.165-0.716,0.22-1.271,0.22c-2.094,0-3.019-1.845-3.019-5.067
		c0-3.056,0.872-5.094,3.151-5.094c0.423,0,0.793,0.057,1.139,0.165L139.506,20.39L139.506,20.39z M143.613,22.23V1.463
		c0,0-0.601-0.109-2.059,0.288c-1.458,0.396-2.063,0.832-2.063,0.832l0.015,5.72c-0.53-0.138-1.245-0.247-2.093-0.247
		c-3.681,0-6.28,2.919-6.28,7.682c0,4.956,2.704,7.587,7.021,7.587C140.619,23.324,142.315,22.94,143.613,22.23"/>
	<path class="st0" d="M235.831,47.007c-0.292,0.166-0.717,0.221-1.271,0.221c-2.094,0-3.019-1.845-3.019-5.067
		c0-3.056,0.872-5.095,3.152-5.095c0.422,0,0.793,0.057,1.139,0.165L235.831,47.007L235.831,47.007z M239.938,48.847V28.08
		c0,0-0.601-0.108-2.06,0.288s-2.062,0.832-2.062,0.832l0.015,5.72c-0.53-0.139-1.246-0.248-2.094-0.248
		c-3.681,0-6.279,2.92-6.279,7.683c0,4.956,2.704,7.587,7.021,7.587C236.943,49.941,238.639,49.558,239.938,48.847"/>
	<path class="st0" d="M195.258,49.7V28.113c0,0-0.631-0.108-2.167,0.288c-1.535,0.396-2.126,0.813-2.126,0.813l0.002,20.485H195.258
		z"/>
</g>
</svg>
