<svg xmlns="http://www.w3.org/2000/svg" xmlns:xlink="http://www.w3.org/1999/xlink" width="190" height="20" viewBox="0 0 190 20">
    <defs>
        <path id="a" d="M0 0h189.572v19.312H0z"/>
    </defs>
    <g fill="none" fill-rule="evenodd" opacity=".7">
        <mask id="b" fill="#fff">
            <use xlink:href="#a"/>
        </mask>
        <path fill="#FEFEFE" d="M83.139 13.813H81.31V7.021c0-.904-.082-1.226-.323-1.547-.2-.261-.562-.402-1.024-.402-.724 0-1.81.563-2.492 1.286v7.455h-.93c-.586 0-.9-.44-.9-1.127V6.318c0-1.206-.1-1.668-.381-2.392l1.749-.482c.24.482.342.924.342 1.547.582-.482.884-.743 1.306-.984a3.732 3.732 0 0 1 1.869-.502c1.064 0 2.009.562 2.37 1.426.161.362.242.804.242 1.267v7.615zm8.054-2.552V5.996c-.522-.623-1.186-.944-2.13-.944-.763 0-1.367.381-1.748 1.025-.382.662-.523 1.467-.523 2.773 0 1.95.241 2.492.784 3.054.341.362.804.523 1.487.523 1.065 0 1.789-.563 2.13-1.166zm2.15 2.552h-1.768c-.1-.301-.12-.442-.181-.944-.703.744-1.528 1.105-2.592 1.105-2.572 0-4.08-1.929-4.08-5.104 0-2.17.744-3.838 2.11-4.723a3.477 3.477 0 0 1 1.97-.582c.964 0 1.768.341 2.451 1.166 0-.282-.04-1.819-.04-2.502V.143l1.849.301v9.994c0 1.627.06 2.753.281 3.375zM71.86 8.87c-.282-.02-.442-.04-.603-.04-1.387 0-2.23.261-2.633.723-.381.443-.522.804-.522 1.467 0 1.106.563 1.749 1.588 1.749.843 0 1.648-.523 2.11-1.327l.06-2.572zm2.612 4.12l-.944 1.245c-.623-.24-1.106-.743-1.347-1.447-.26.322-1.105 1.327-2.853 1.327-2.01 0-3.255-1.025-3.255-2.954 0-2.331 1.868-3.577 5.124-3.577.24 0 .442 0 .703.02V6.94c0-1.186-.16-1.99-1.567-1.99-1.065 0-2.272.523-3.095 1.146l-.844-1.327c.985-.562 2.27-1.326 4.22-1.326 1.467 0 2.532.543 2.914 1.608.16.442.2.784.2 1.768 0 .724-.08 2.271-.08 3.738 0 1.387.04 1.95.824 2.432zm-9.171.803a2.71 2.71 0 0 1-1.146.221c-.723 0-1.186-.22-1.567-.763-.301-.422-.382-.764-.382-1.749V3.295c0-1.426-.06-2.11-.221-2.893L63.915 0c.18.663.18 1.628.18 2.874v8.146c0 1.065.06 1.306.261 1.487.121.141.402.201.623.141l.322 1.145zM58.267 8.87c-.28-.02-.442-.04-.602-.04-1.387 0-2.23.261-2.633.723-.382.443-.523.804-.523 1.467 0 1.106.563 1.749 1.588 1.749.844 0 1.648-.523 2.11-1.327l.06-2.572zm2.613 4.12l-.944 1.245c-.623-.24-1.106-.743-1.347-1.447-.26.322-1.105 1.327-2.854 1.327-2.009 0-3.255-1.025-3.255-2.954 0-2.331 1.869-3.577 5.124-3.577.241 0 .443 0 .704.02V6.94c0-1.186-.161-1.99-1.568-1.99-1.065 0-2.27.523-3.095 1.146l-.843-1.327c.984-.562 2.27-1.326 4.22-1.326 1.466 0 2.532.543 2.914 1.608.16.442.2.784.2 1.768 0 .724-.08 2.271-.08 3.738 0 1.387.04 1.95.824 2.432zM49.461 7.805c0-.964-.22-1.768-.622-2.271a1.81 1.81 0 0 0-1.447-.703c-1.407 0-2.11 1.146-2.11 2.974h4.18zm1.93 1.366h-6.13v.242c0 .863.121 1.527.423 2.01.522.803 1.345 1.185 2.31 1.185.945 0 1.749-.322 2.472-.965l.704 1.106c-.986.864-2.17 1.285-3.477 1.285-2.793 0-4.502-2.029-4.502-5.324 0-1.749.342-2.874 1.206-3.9.804-.944 1.789-1.386 3.035-1.386 1.125 0 2.03.362 2.733 1.085.884.905 1.205 2.03 1.226 4.34v.322zM32.64 3.746l-2.813 10.148H28.04l-1.467-5.486c-.18-.703-.623-2.371-.623-2.371h-.06s-.402 1.708-.542 2.25l-1.508 5.607h-1.768L19.318 3.826l1.868-.301 1.287 5.646c.22 1.005.522 2.472.522 2.472h.061s.22-1.426.462-2.29l1.527-5.607h1.91L28.36 9.19c.281 1.085.562 2.352.562 2.452h.08c0-.1.322-1.728.463-2.39l1.246-5.507h1.93zm-15.82 4.06c0-.965-.22-1.77-.623-2.272a1.807 1.807 0 0 0-1.446-.703c-1.407 0-2.11 1.146-2.11 2.974h4.18zm1.93 1.365h-6.13v.242c0 .863.121 1.527.423 2.01.523.803 1.346 1.185 2.31 1.185.945 0 1.749-.322 2.472-.965l.703 1.106c-.984.864-2.17 1.285-3.476 1.285-2.793 0-4.501-2.029-4.501-5.324 0-1.749.341-2.874 1.205-3.9.804-.944 1.79-1.386 3.035-1.386 1.125 0 2.03.362 2.733 1.085.884.905 1.205 2.03 1.226 4.34v.322zm170.822-5.396l-.5 1.3h-1.98v6.039c0 1.24.3 1.62 1.3 1.62.34 0 .62-.06.939-.2l.22 1.12c-.56.28-1.16.42-1.82.42-.66 0-1.379-.2-1.7-.5-.419-.381-.74-.58-.74-2.04v-6.46h-1.198v-1.3h1.199c0-.779.02-1.8.12-2.559l1.9-.44c-.08.72-.18 1.98-.18 3h2.44zm-6.775 10.018h-1.82V7.035c0-.9-.08-1.22-.319-1.54-.2-.26-.56-.4-1.02-.4-.72 0-1.8.56-2.48 1.28v7.418h-1.82V6.334c0-1.2-.1-1.659-.38-2.38l1.74-.479c.24.48.34.92.34 1.54.58-.48.88-.74 1.3-.98.58-.34 1.24-.5 1.86-.5 1.06 0 1.999.56 2.36 1.42.159.36.24.8.24 1.26v7.578zm-10.983-5.979c0-.96-.22-1.76-.62-2.26-.32-.4-.8-.7-1.44-.7-1.399 0-2.1 1.14-2.1 2.96h4.16zm1.92 1.36h-6.1v.24c0 .86.12 1.52.42 2 .521.8 1.34 1.18 2.3 1.18.94 0 1.74-.32 2.46-.96l.7 1.1c-.98.86-2.16 1.28-3.46 1.28-2.78 0-4.479-2.02-4.479-5.3 0-1.74.34-2.86 1.2-3.88.8-.94 1.78-1.379 3.02-1.379 1.12 0 2.02.36 2.72 1.08.88.9 1.199 2.02 1.219 4.32v.319zm-9.577 4.62h-1.82v-7.18c0-1.14-.36-1.54-1.2-1.54-.92 0-1.58.6-2.339 1.36v7.36h-1.8v-7.14c0-1.12-.32-1.54-1.24-1.54-.68 0-1.44.34-2.3 1.16v7.52h-1.82v-7.36c0-1.42-.08-1.8-.359-2.499l1.72-.42c.2.34.34.84.34 1.4.86-.9 1.88-1.42 2.819-1.42.94 0 1.88.5 2.38 1.58 1-1.06 2.04-1.58 3.06-1.58 1.559 0 2.559.98 2.559 2.82v7.478zm-14.397 0h-1.82v-6.76c0-.899-.08-1.22-.32-1.54-.2-.26-.56-.4-1.02-.4-.72 0-1.799.56-2.48 1.28v7.42h-1.82v-7.46c0-1.2-.099-1.659-.379-2.38l1.74-.479c.24.48.34.92.34 1.54.58-.48.88-.74 1.3-.98.58-.34 1.24-.5 1.86-.5 1.059 0 1.999.56 2.36 1.42.159.36.239.8.239 1.26v7.578zm-8.782-10.239l-.64 1.84a1.5 1.5 0 0 0-.52-.1c-1.12 0-2.079.94-2.079 2.039v6.46h-1.84v-7.36c0-1.22-.14-1.88-.38-2.499l1.78-.46c.18.38.34 1.04.34 1.54v.18c.8-1.16 1.66-1.74 2.72-1.74.24 0 .46.04.62.1zm-8.603 4.259c0-.96-.22-1.76-.62-2.26-.32-.4-.8-.7-1.44-.7-1.399 0-2.1 1.14-2.1 2.96h4.16zm1.92 1.36h-6.1v.24c0 .86.12 1.52.421 2 .52.8 1.34 1.18 2.3 1.18.939 0 1.74-.32 2.459-.96l.7 1.1c-.98.86-2.16 1.28-3.46 1.28-2.779 0-4.479-2.02-4.479-5.3 0-1.74.34-2.86 1.2-3.88.8-.94 1.78-1.379 3.02-1.379 1.12 0 2.02.36 2.719 1.08.88.9 1.2 2.02 1.22 4.32v.319zm-8.373-5.4l-3.659 10.1h-1.72l-3.58-10.06 1.9-.3 1.98 6.06c.22.68.44 1.48.6 2.16.16-.6.36-1.38.64-2.2l1.9-5.76h1.94zm-11.258 5.18c0-3.1-.9-4.04-2.34-4.04-1.6 0-2.259 1.14-2.259 3.66 0 3.06.78 4.08 2.34 4.08 1.4 0 2.26-1.08 2.26-3.7zm2.06-.08c0 3.18-1.7 5.2-4.36 5.2-2.679 0-4.34-2.04-4.34-5.3 0-3.24 1.661-5.28 4.3-5.28 2.96 0 4.4 2.36 4.4 5.38zm-10.025 4.02c-1.12.7-2.62 1.1-4.08 1.1-1.84 0-3.3-.62-4.358-1.86-1.1-1.28-1.6-2.9-1.6-5.16 0-1.913.8-4.103 2.38-5.403.998-.82 2.099-1.18 3.459-1.18 1.5 0 2.819.44 3.899 1.38l-.92 1.2c-1.02-.74-1.88-1.04-2.94-1.04-1.32 0-2.298.552-2.959 1.76-.481.88-.76 1.744-.76 3.383 0 1.9.34 3.32.98 4.16.6.78 1.78 1.24 2.96 1.24.779 0 1.48-.2 2.04-.52v-3.92h-2.54l-.32-1.58h4.759v6.44zm-63.23-.374l-.48 1.6h-8.218v-1.48l5.559-8.782c.3-.52.7-1.06.98-1.42-.4.04-.9.06-1.58.06h-4.719l.46-1.6h7.918v1.54l-5.499 8.783c-.3.52-.62.92-.86 1.32.42-.02.88-.02 1.38-.02h5.06zM9.194 13.957h-2.06l-3.62-7.319c-.7-1.42-1.419-2.98-1.679-3.78l-.12.02c.1 1.18.14 2.56.16 3.84l.08 7.239h-.756c-.873 0-1.184-.844-1.184-1.796V.18h2.24l3.84 7.599c.58 1.14 1.26 2.92 1.36 3.3l.12-.041c-.04-.4-.2-2.58-.2-4.1L7.333.18h1.86v13.778zM0 18.359s23.909-2.699 46.523-2.699c23.1 0 47.15 2.7 47.15 2.7v.952s-24.21-2.559-47.146-2.559C23.91 16.753 0 19.313 0 19.313v-.954z" mask="url(#b)"/>
    </g>
</svg>
